<svg width="80" height="80" viewBox="0 0 80 80" fill="none" xmlns="http://www.w3.org/2000/svg">
<path d="M39.9 23.2333C39.4318 23.7021 39.1688 24.3375 39.1688 25C39.1688 25.6625 39.4318 26.2979 39.9 26.7667L48.1333 35L39.9 43.2333C39.6544 43.4622 39.4573 43.7382 39.3207 44.0449C39.1841 44.3515 39.1106 44.6826 39.1047 45.0183C39.0987 45.3539 39.1605 45.6874 39.2862 45.9987C39.412 46.3099 39.5991 46.5927 39.8365 46.8301C40.0739 47.0675 40.3567 47.2547 40.668 47.3804C40.9793 47.5061 41.3127 47.5679 41.6484 47.562C41.9841 47.556 42.3151 47.4826 42.6218 47.3459C42.9284 47.2093 43.2044 47.0123 43.4333 46.7667L53.4333 36.7667C53.9015 36.2979 54.1644 35.6625 54.1644 35C54.1644 34.3375 53.9015 33.7021 53.4333 33.2333L43.4333 23.2333C42.9646 22.7652 42.3291 22.5022 41.6666 22.5022C41.0041 22.5022 40.3687 22.7652 39.9 23.2333ZM30.1 26.7667C30.5416 26.2927 30.782 25.6659 30.7706 25.0183C30.7591 24.3706 30.4968 23.7526 30.0387 23.2946C29.5807 22.8365 28.9627 22.5742 28.3151 22.5627C27.6674 22.5513 27.0406 22.7917 26.5666 23.2333L16.5666 33.2333C16.0985 33.7021 15.8355 34.3375 15.8355 35C15.8355 35.6625 16.0985 36.2979 16.5666 36.7667L26.5666 46.7667C27.0406 47.2083 27.6674 47.4487 28.3151 47.4372C28.9627 47.4258 29.5807 47.1634 30.0387 46.7054C30.4968 46.2474 30.7591 45.6294 30.7706 44.9817C30.782 44.3341 30.5416 43.7072 30.1 43.2333L21.8666 35L30.1 26.7667Z" fill="#414141"/>
<path d="M35 0C54.33 0 70 15.67 70 35C70.0127 43.4205 66.9767 51.5609 61.4533 57.9167L75.9333 72.4C76.2624 72.7056 76.503 73.0943 76.6297 73.5251C76.7564 73.9559 76.7646 74.4129 76.6533 74.848C76.5421 75.2831 76.3156 75.6801 75.9976 75.9973C75.6796 76.3144 75.282 76.5399 74.8467 76.65C74.4121 76.7614 73.9555 76.7536 73.525 76.6275C73.0944 76.5014 72.7058 76.2616 72.4 75.9333L57.9167 61.4533C51.5605 66.9762 43.4203 70.0121 35 70C15.67 70 0 54.33 0 35C0 15.67 15.67 0 35 0ZM5 35C5 42.9565 8.1607 50.5871 13.7868 56.2132C19.4129 61.8393 27.0435 65 35 65C42.9565 65 50.5871 61.8393 56.2132 56.2132C61.8393 50.5871 65 42.9565 65 35C65 27.0435 61.8393 19.4129 56.2132 13.7868C50.5871 8.16071 42.9565 5 35 5C27.0435 5 19.4129 8.16071 13.7868 13.7868C8.1607 19.4129 5 27.0435 5 35Z" fill="#414141"/>
</svg>
